<?xml version="1.0" encoding="UTF-8" standalone="no"?>
<!-- Created with Inkscape (http://www.inkscape.org/) -->

<svg
   version="1.1"
   id="svg1"
   width="43.52002"
   height="43.52002"
   viewBox="0 0 43.52002 43.52002"
   sodipodi:docname="液体弹窗设计.svg"
   xml:space="preserve"
   inkscape:version="1.4.4 (dcaf3e7, 2026-05-05)"
   xmlns:inkscape="http://www.inkscape.org/namespaces/inkscape"
   xmlns:sodipodi="http://sodipodi.sourceforge.net/DTD/sodipodi-0.dtd"
   xmlns="http://www.w3.org/2000/svg"
   xmlns:svg="http://www.w3.org/2000/svg"><defs
     id="defs1" /><sodipodi:namedview
     id="namedview1"
     pagecolor="#ffffff"
     bordercolor="#000000"
     borderopacity="0.25"
     inkscape:showpageshadow="2"
     inkscape:pageopacity="0.0"
     inkscape:pagecheckerboard="0"
     inkscape:deskcolor="#d1d1d1"
     showgrid="false"
     inkscape:zoom="0.70465117"
     inkscape:cx="754.27392"
     inkscape:cy="311.50165"
     inkscape:window-width="3440"
     inkscape:window-height="1369"
     inkscape:window-x="-8"
     inkscape:window-y="1072"
     inkscape:window-maximized="1"
     inkscape:current-layer="layer1"
     inkscape:export-bgcolor="#ffffff00"><inkscape:page
       x="0"
       y="0"
       width="44"
       height="44"
       id="page1"
       margin="0"
       bleed="0" /></sodipodi:namedview><style
     type="text/css"
     id="style1">
	.st0{fill-rule:evenodd;clip-rule:evenodd;}
</style><g
     id="Recipe_button"
     transform="matrix(0.64,0,0,0.64,-1262.1416,-660.88085)"
     style="display:inline"><circle
       style="display:inline;fill:#ffffff;fill-opacity:1;stroke-width:3.04557;stroke-linecap:round"
       id="path9"
       cx="2006.0962"
       cy="1066.6263"
       r="34" /><path
       id="path1-82"
       d="m 1992.2145,1047.0287 c -2.2865,0 -4.084,1.7955 -4.084,4.082 v 31.0313 c 0,2.2865 1.7975,4.082 4.084,4.082 h 15.8418 c 0.8166,0 1.6328,-0.6529 1.6328,-1.6328 0,-0.9799 -0.6529,-1.6328 -1.6328,-1.6328 h -15.8418 c -0.49,0 -0.8164,-0.3265 -0.8164,-0.8164 v -31.0313 c 0,-0.4899 0.3264,-0.8164 0.8164,-0.8164 h 24.4981 c 0.4899,0 0.8164,0.3265 0.8164,0.8164 v 13.7188 c 0,0.9799 0.6528,1.6328 1.6328,1.6328 0.9799,0 1.6328,-0.6529 1.6328,-1.6328 v -13.7188 c 0,-2.2865 -1.7955,-4.082 -4.082,-4.082 z m 4.8984,9.7988 c -0.9799,0 -1.6328,0.6529 -1.6328,1.6328 0,0.98 0.6529,1.6328 1.6328,1.6328 h 13.0665 c 0.9799,0 1.6328,-0.6528 1.6328,-1.6328 0,-0.9799 -0.6529,-1.6328 -1.6328,-1.6328 z m 0,8.166 c -0.9799,0 -1.6328,0.6529 -1.6328,1.6328 0,0.98 0.6529,1.6329 1.6328,1.6329 h 7.3497 c 0.9799,0 1.6347,-0.6529 1.6347,-1.6329 0,-0.9799 -0.6548,-1.6328 -1.6347,-1.6328 z m 17.8243,3.3067 c -1.8578,0 -3.6958,0.6938 -5.084,2.082 -2.7765,2.9398 -2.7765,7.5126 0,10.2891 1.3066,1.4699 3.2659,2.123 5.0625,2.123 1.4102,0 2.7357,-0.4225 3.916,-1.1465 l 2.4531,2.4532 c 0.3267,0.3266 0.6546,0.4902 1.1446,0.4902 0.4899,0 0.8159,-0.1636 1.1425,-0.4902 0.6533,-0.6533 0.6533,-1.6319 0,-2.2852 l -2.4414,-2.4414 c 1.7352,-2.8668 1.406,-6.5979 -0.9883,-8.9922 -1.4699,-1.3882 -3.3473,-2.082 -5.205,-2.082 z m -0.022,3.2265 c 1.1432,0 2.124,0.326 2.7773,1.1426 1.4699,1.4699 1.4699,4.0828 0,5.5527 -1.4699,1.4699 -4.0828,1.4699 -5.5527,0 -1.4699,-1.4699 -1.4699,-4.0828 0,-5.5527 0.8166,-0.8166 1.7955,-1.1426 2.7754,-1.1426 z m -17.8028,1.6328 c -0.9799,0 -1.6328,0.6529 -1.6328,1.6329 0,0.9799 0.6529,1.6328 1.6328,1.6328 h 4.084 c 0.98,0 1.6328,-0.6529 1.6328,-1.6328 0,-0.98 -0.6528,-1.6329 -1.6328,-1.6329 z"
       style="display:inline;fill:#636363;fill-opacity:1;stroke-width:0.0382785" /></g></svg>
